Coordinates
version=1
nRows=26
nColumns=24
inDegrees=yes

Units are S.I. units (second, meters, Newtons, ...)
Angles are in degrees.

endheader
time	pelvis_tilt	pelvis_list	pelvis_rotation	pelvis_tx	pelvis_ty	pelvis_tz	hip_flexion_r	hip_adduction_r	hip_rotation_r	knee_angle_r	ankle_angle_r	subtalar_angle_r	mtp_angle_r	hip_flexion_l	hip_adduction_l	hip_rotation_l	knee_angle_l	ankle_angle_l	subtalar_angle_l	mtp_angle_l	lumbar_extension	lumbar_bending	lumbar_rotation
      0.68800000	      4.14320752	      5.46861189	     11.21068168	     -0.00927407	      0.98389618	      0.27384788	     26.22557373	    -10.92712201	    -11.68634931	     -4.84250690	      6.55745211	    -10.46007856	    -13.41161948	    -25.26100030	      3.09100810	      5.60544058	     -4.89809970	     11.95249837	    -10.80379986	     -2.50665100	    -16.16884709	     -1.95345062	     -8.64536189
      0.69216667	      4.11237642	      5.48129640	     11.36233013	     -0.00329015	      0.98295796	      0.27413778	     26.14875767	    -10.96124269	    -11.72571226	     -5.55311173	      6.52422268	    -10.55832686	    -13.40829298	    -25.48255975	      2.93126237	      5.62271700	     -5.07464173	     11.82026662	    -10.67248925	     -2.51020142	    -16.09496134	     -1.88986881	     -8.66868735
      0.69633333	      4.09079398	      5.48751734	     11.54752872	      0.00270403	      0.98208056	      0.27438187	     26.03757036	    -11.00182577	    -11.83537420	     -6.24067658	      6.46904519	    -10.59134932	    -13.39454289	    -25.69485676	      2.74544980	      5.65000425	     -5.28266769	     11.71101991	    -10.43263968	     -2.50552553	    -16.05436977	     -1.80094746	     -8.76964841
      0.70050000	      4.10246712	      5.45432197	     11.76333290	      0.00881848	      0.98132001	      0.27451980	     25.84270987	    -11.01158312	    -12.06648741	     -6.85145942	      6.32221735	    -10.61986893	    -13.35831138	    -25.93602364	      2.50175768	      5.65876990	     -5.49493693	     11.62122881	    -10.19790285	     -2.47757205	    -15.99596277	     -1.65337025	     -8.94720886
      0.70466667	      4.06393297	      5.45495427	     11.89875455	      0.01495011	      0.98047128	      0.27485507	     25.72855503	    -11.01644188	    -12.15963696	     -7.46196904	      6.15755914	    -10.72386677	    -13.34833055	    -26.13443075	      2.33419114	      5.64214350	     -5.69358757	     11.38829994	    -10.10684729	     -2.46721751	    -15.90868814	     -1.57912985	     -8.96773464
      0.70883333	      4.11759360	      5.36183988	     12.14789513	      0.02116381	      0.97990617	      0.27495198	     25.41442894	    -10.95466974	    -12.46808271	     -7.90650411	      5.81793463	    -10.89403395	    -13.28091814	    -26.39772818	      2.00363540	      5.67183110	     -5.91469840	     11.23302905	     -9.89607828	     -2.38777056	    -15.88878774	     -1.33793186	     -9.15836807
      0.71300000	      4.22843956	      5.28308339	     12.33781133	      0.02738230	      0.97943954	      0.27516648	     25.04832048	    -10.86670416	    -12.73418920	     -8.32209252	      5.48932346	    -11.04173592	    -13.13489406	    -26.72559076	      1.69531512	      5.64646120	     -6.11761489	     10.94742442	     -9.73358515	     -2.21418541	    -15.95490183	     -1.10732525	     -9.30018864
      0.71716667	      4.26807102	      5.19305657	     12.51848002	      0.03366108	      0.97892128	      0.27540635	     24.75072778	    -10.76764302	    -12.99004715	     -8.67646280	      5.02803971	    -11.28132386	    -12.96399434	    -26.96219564	      1.39754363	      5.61560440	     -6.34978035	     10.65672580	     -9.59180688	     -1.99387923	    -15.92116617	     -0.89219693	     -9.40756985
      0.72133333	      4.31992218	      5.08115934	     12.68440863	      0.03998093	      0.97847833	      0.27568211	     24.42869676	    -10.63102955	    -13.25539681	     -8.96070165	      4.46953226	    -11.57317242	    -12.77590106	    -27.19709598	      1.08051777	      5.55797668	     -6.59595590	     10.32836319	     -9.46259404	     -1.73720743	    -15.89531932	     -0.65165954	     -9.47636414
      0.72550000	      4.26648915	      4.97574818	     12.83385588	      0.04634513	      0.97793298	      0.27594932	     24.23768424	    -10.52034366	    -13.52349742	     -9.23590049	      3.84386592	    -11.83906949	    -12.69498098	    -27.30430470	      0.81181129	      5.52316972	     -6.88215356	      9.98772404	     -9.42335456	     -1.61425645	    -15.73544181	     -0.45265864	     -9.46250334
      0.72966667	      4.44375581	      4.79377617	     12.96381896	      0.05270970	      0.97781808	      0.27630740	     23.74900368	    -10.25541974	    -13.80658689	     -9.34170355	      3.04873171	    -12.27387107	    -12.45148008	    -27.63136617	      0.40698483	      5.36070049	     -7.15345890	      9.57301931	     -9.23174467	     -1.25541821	    -15.84335180	     -0.10268077	     -9.57256018
      0.73383333	      4.50486390	      4.62336171	     13.07958194	      0.05909970	      0.97759343	      0.27666782	     23.40991649	    -10.02378561	    -14.07446987	     -9.45010862	      2.18001257	    -12.72290361	    -12.19106026	    -27.81311004	      0.05808941	      5.23377202	     -7.47642020	      9.13128115	     -9.15634050	     -0.85864462	    -15.81479671	      0.20180795	     -9.59299933
      0.73800000	      4.44600874	      4.45270587	     13.19218924	      0.06554333	      0.97726045	      0.27698196	     23.22647295	     -9.82963093	    -14.37894353	     -9.58433029	      1.29573176	    -13.08358642	    -12.07318854	    -27.84170614	     -0.24662328	      5.14447731	     -7.85752464	      8.67881109	     -9.19675941	     -0.66422337	    -15.62575795	      0.47327964	     -9.52937620
      0.74216667	      4.66709444	      4.15626585	     13.21638808	      0.07205905	      0.97737465	      0.27751320	     22.71521639	     -9.38733717	    -14.63518398	     -9.54498375	      0.21191794	    -13.55767763	    -11.53181030	    -28.13959560	     -0.72552949	      4.76289151	     -8.22906470	      8.21579400	     -8.94042248	      0.19243844	    -15.74759368	      0.94651388	     -9.45528889
      0.74633333	      4.57327415	      4.01495600	     13.28375076	      0.07843352	      0.97715124	      0.27791974	     22.61056499	     -9.21546204	    -14.86809873	     -9.68328626	     -0.79827640	    -14.04831902	    -11.42112413	    -28.08761743	     -0.96041228	      4.72211556	     -8.67625396	      7.61743463	     -9.11013973	      0.39201903	    -15.54771306	      1.16722110	     -9.43633780
      0.75050000	      4.77115211	      3.67614881	     13.20045177	      0.08502200	      0.97732970	      0.27868576	     22.17883933	     -8.68663721	    -14.99801503	     -9.64017003	     -1.95680184	    -14.60606893	    -10.79063323	    -28.31062902	     -1.42540484	      4.19097075	     -9.13290914	      7.07680545	     -8.86263687	      1.46159942	    -15.63571365	      1.64770177	     -9.26171858
      0.75466667	      4.76245891	      3.53030124	     13.16225928	      0.09133379	      0.97736364	      0.27934128	     22.02980659	     -8.44549675	    -15.09733929	     -9.77310643	     -3.07874224	    -15.22915568	    -10.44135645	    -28.29694791	     -1.63588259	      4.04257759	     -9.65648889	      6.36344552	     -9.04341591	      2.10479001	    -15.56514492	      1.86551291	     -9.25863156
      0.75883333	      4.66595695	      3.25126402	     13.02121071	      0.09793137	      0.97723852	      0.28018582	     22.01461045	     -8.05156156	    -15.14683614	     -9.90886722	     -4.17043082	    -15.71008668	     -5.57656639	    -28.13568594	     -1.92723130	      3.54514067	    -10.27297026	      5.67431426	     -9.04811023	     11.52221530	    -15.32544767	      2.18506552	     -8.93991652
      0.76300000	      4.67229893	      3.00935953	     12.99804593	      0.10438228	      0.97746875	      0.28064408	     21.85777761	     -7.75124155	    -15.38668106	    -10.06633694	     -5.15966806	    -15.98380853	     -5.60910488	    -28.05945700	     -2.22026728	      3.34815137	    -10.91370561	      4.93682681	     -9.30700793	     11.56404140	    -15.21815704	      2.54958498	     -8.86067905
      0.76716667	      4.79530342	      2.73349461	     12.85168734	      0.11081770	      0.97787758	      0.28149120	     21.60167136	     -7.31515709	    -15.42337093	    -10.18745291	     -6.22353850	    -16.45780310	     -5.63679522	    -28.07156458	     -2.54363963	      2.90705523	    -11.61307523	      4.19322783	     -9.33133549	     11.70459684	    -15.27124866	      2.92592334	     -8.69210402
      0.77133333	      4.76508904	      2.44665951	     12.72421807	      0.11734878	      0.97813973	      0.28216524	     21.53967106	     -6.94489195	    -15.53702043	    -10.41825935	     -7.07190653	    -16.63410167	     -5.64442456	    -27.88152611	     -2.82811341	      2.53042605	    -12.39490993	      3.41281641	     -9.55191738	     11.80066323	    -15.11154863	      3.30633953	     -8.51858830
      0.77550000	      4.82940597	      2.15209994	     12.46175243	      0.12382505	      0.97854447	      0.28326278	     21.40751175	     -6.46559644	    -15.41121315	    -10.63049031	     -8.01690277	    -17.06186058	     -5.63640486	    -27.75928703	     -3.10884400	      1.92744371	    -13.24350936	      2.62576108	     -9.53991542	     12.07265718	    -15.10447641	      3.64978642	     -8.19854088
      0.77966667	      4.82364964	      1.85199992	     12.22717576	      0.13034443	      0.97892690	      0.28418656	     21.36524954	     -6.03799553	    -15.38310065	    -10.92629764	     -8.79418539	    -17.28000963	     -5.61991967	    -27.52550004	     -3.37511130	      1.38960683	    -14.16028214	      1.80022043	     -9.69003158	     12.38866475	    -14.99867032	      4.01901043	     -7.91944371
      0.78383333	      4.82529497	      1.55017476	     11.95748837	      0.13684068	      0.97937700	      0.28524709	     21.31195832	     -5.58584083	    -15.26342902	    -11.21281786	     -9.49528009	    -17.44804496	     -5.59174589	    -27.25094020	     -3.63992774	      0.78829904	    -15.16716345	      0.94024173	     -9.81858818	     12.82717108	    -14.90983603	      4.36297752	     -7.60360888
      0.78800000	      4.82127939	      1.30435611	     11.77795405	      0.14325402	      0.97994245	      0.28596956	     21.25972476	     -5.27546014	    -15.34361246	    -11.58578889	    -10.00516355	    -17.24231439	     -5.58747626	    -26.92321781	     -3.86330565	      0.36345845	    -16.24404121	      0.01891399	    -10.09462540	     12.90613373	    -14.81966983	      4.70239788	     -7.52007533
      0.79216667	      4.81972835	      0.96036040	     11.42292790	      0.14976300	      0.98043576	      0.28729221	     21.22205364	     -4.73511242	    -15.08352912	    -11.88351753	    -10.60293057	    -17.50963967	     -5.55991112	    -26.56273305	     -4.15752079	     -0.39865282	    -17.41230447	     -0.84192864	    -10.20281402	     13.39121562	    -14.73666792	      5.05212007	     -7.04444252
